#!OML:ASF F:\VICON\USERDATA\INSTALL\rory3\rory3.ASF
:FULLY-SPECIFIED
:DEGREES
43
root 0.09442849209385651 17.336180230290783 12.84379874077509 -2.5052134832828585 1.3600021613554605 0.4812983688568164
lfemur 7.306435537007777 -0.5926771162502762 -23.637473727683165
ltibia 23.089191637200027
lfoot -9.526643935459324 -4.238090407040861
ltoes -12.8921564299885
rfemur -28.338945171111856 7.7206649873971 17.722897415688074
rtibia 18.537079422990306
rfoot -8.771345157213545 -13.390966817145614
rtoes -3.135154902788183
lowerback 10.422151840652775 -1.3056282666303574 -2.8092400781439926
upperback -0.08052127826932845 -2.040364736982471 1.3985177747409954
thorax -5.305495202434481 -0.9518462124955729 3.854482530384031
lowerneck -15.996630150941575 -2.890056262749323 -2.0440785995506365
upperneck 22.570694481268323 -3.552458383335067 0.46951256731616103
head 10.035665003932648 -1.7751558476512475 -0.002338796186267339
lclavicle -1.3902924413170633e-15 -1.8462433220461506e-15
lhumerus -23.038277680448697 -0.9237940909941953 79.68308356642872
lradius 28.86610892604663
lwrist 7.6598448340745655
lhand -29.817258913697255 23.28007378369253
lfingers 7.125019999999999
lthumb -2.6719932463432188 53.820597404524435
rclavicle -1.3844783058193008e-15 -1.841441044937044e-15
rhumerus -36.48536074897504 -28.57344686494976 -70.84421251895002
rradius 20.805237884776368
rwrist 9.017953816658256
rhand -17.259007006411938 23.05650926768302
rfingers 7.125019999999999
rthumb 8.968831598205693 -6.4820479724819755
44
root 0.040387790570042825 17.242225521562215 14.063235534726644 -3.4906295138233308 0.32193271083638186 -0.46976551499058306
lfemur 7.058515339187148 -0.2480334679821774 -22.4577368502403
ltibia 26.894917943281555
lfoot -7.7382241641471525 -6.0217187280285085
ltoes -14.567317526542835
rfemur -28.054992611304577 5.023314297551062 21.66578960013919
rtibia 23.13192069461934
rfoot -7.855062615296322 -10.27475282824463
rtoes -1.9178143848401792
lowerback 11.393067111747994 -0.9005815680792111 -1.8182806690998174
upperback 0.024534094215893837 -1.4437588442084426 1.7253331300370152
thorax -5.399323436347539 -0.6887662017398453 3.5703232402234706
lowerneck -16.132642902086648 -2.857754981126025 -2.039486275476028
upperneck 22.50500117760646 -3.48713780557379 0.4276168964438762
head 10.031482951587643 -1.746066585703115 0.0020785469852142857
lclavicle -1.3906230952132073e-15 -1.846553234171256e-15
lhumerus -24.27998258181632 -0.5271314684087103 80.0313226806492
lradius 29.75928954605356
lwrist 7.911742340860901
lhand -30.464802712092443 22.742117190262732
lfingers 7.125019999999999
lthumb -3.187559315948994 53.3968557022899
rclavicle -1.3842651256811236e-15 -1.8412923311612012e-15
rhumerus -37.3332182511967 -30.373977754604734 -68.45076259985711
rradius 19.264713216922484
rwrist 11.719567908244528
rhand -17.30358505115799 23.050923822882655
rfingers 7.125019999999999
rthumb 8.880373548379179 -6.563804759280272
45
root -0.03926447935549848 17.359579315835543 15.45213815359071 -3.8407087183262094 0.5916621941869777 -1.828185305947526
lfemur 5.06665946452749 -0.5206042612366524 -20.52663516699246
ltibia 32.740825422952604
lfoot -5.27514816553864 -8.006455437679158
ltoes -16.32365282093499
rfemur -26.090439617385446 5.328405018675673 24.51714596662288
rtibia 26.315629278569165
rfoot -5.788851501558734 -8.696544560904599
rtoes -0.18484417465909786
lowerback 11.132643957247625 -0.9781491432547753 -0.6139580131035673
upperback 0.21861538946310596 -1.2978003939375542 2.126131326923311
thorax -5.279917528721925 -0.6237463253343165 3.2911595590445986
lowerneck -16.22063950865296 -2.7415231093320194 -1.9774246580111212
upperneck 22.65333529578631 -3.2534805957668134 0.18325346205778065
head 10.06536231939167 -1.6645242117416486 -0.04917457369289972
lclavicle -1.3904983202325307e-15 -1.846427754579651e-15
lhumerus -25.89470930120276 -0.23648790835411315 80.36283372680559
lradius 30.633152708752792
lwrist 8.435916031049448
lhand -30.660938260270488 22.283706371372602
lfingers 7.125019999999999
lthumb -3.411572895417157 52.854423592573106
rclavicle -1.3842284695358686e-15 -1.8411349032734015e-15
rhumerus -37.989938570765155 -31.861515752103628 -66.49505263497231
rradius 18.021850973583955
rwrist 14.423564933639222
rhand -17.36947318243064 22.91196109039543
rfingers 7.125019999999999
rthumb 8.728361555316106 -6.822103398816028
46
root -0.059385084109259356 17.832373931759925 13.459266100511236 -3.5194402806290737 1.4938767200159748 -3.8145209822891957
lfemur 0.2440567882858744 -1.5161672291844528 -17.462274491610742
ltibia 41.73622487989566
lfoot -0.7274156511091459 -10.52760288635563
ltoes -16.591254403647635
rfemur -21.216218964925204 6.536423285857046 26.843359414361124
rtibia 25.308115292439552
rfoot -5.084103574656188 -6.454471467184655
rtoes 3.4107599630421603
lowerback 10.16243367486058 -1.5005112526920739 1.2783208669417336
upperback 0.19898892206288524 -1.55362867817552 2.716548652264165
thorax -5.28754274753088 -0.7517067192011253 3.0733291360295487
lowerneck -16.23063331055296 -2.616681840463142 -1.9405220543582744
upperneck 23.016213048814876 -2.9829354444632585 -0.11489529448923397
head 10.164742310836719 -1.5736462955994184 -0.10749384655972846
lclavicle -1.3900664292796353e-15 -1.8460088875058948e-15
lhumerus -27.446905058194254 0.006441446561507913 80.67417310070125
lradius 31.242478107174495
lwrist 8.770402763886183
lhand -30.35356385585112 22.061026801227833
lfingers 7.125019999999999
lthumb -3.194033162011951 52.57605447664357
rclavicle -1.3843305485073015e-15 -1.8410305147051752e-15
rhumerus -38.327163027115276 -32.65276954311014 -65.29852312566547
rradius 17.229124511506363
rwrist 16.33126301749297
rhand -17.4795392383001 22.65137757256568
rfingers 7.125019999999999
rthumb 8.575852178847601 -7.167668528489765
47
root -0.16296790955334306 18.011696879600095 11.941487008634319 -4.295359916411592 2.1153114975756813 -4.7516377500766644
lfemur -3.915610384519354 -1.669917155618586 -15.246057402586183
ltibia 49.41361787520209
lfoot 2.157467205323635 -10.633445304862132
ltoes -14.763613984001143
rfemur -16.797720304373783 6.3810198073814695 28.805609264622696
rtibia 24.622903295448282
rfoot -6.099227849436444 -4.856106750671643
rtoes 7.018165952743136
lowerback 10.246922603788809 -1.6155312624337281 2.0325917726405085
upperback -0.0522363883405845 -1.4870048273112726 3.0589233416408073
thorax -5.621410174263266 -0.7293479538046594 2.743141567395888
lowerneck -16.16528367036281 -2.5549848045532517 -1.921272212042225
upperneck 23.418297326184078 -2.827753112776695 -0.38105059105834876
head 10.285213684146624 -1.5286393958704345 -0.1682833715704332
lclavicle -1.389148681218378e-15 -1.8451432944576684e-15
lhumerus -28.562718091562026 0.42795966902434124 80.93130646358095
lradius 31.33263284074564
lwrist 8.514487134065577
lhand -29.7594384631977 22.238813770905498
lfingers 7.125019999999999
lthumb -2.708074981416679 52.818657666615856
rclavicle -1.3847970523948867e-15 -1.841393886825259e-15
rhumerus -38.07679469527431 -32.42521508292591 -65.25431165705652
rradius 17.007414275080347
rwrist 16.83211476786585
rhand -17.59975527623893 22.30256991448175
rfingers 7.125019999999999
rthumb 8.412850519273913 -7.621728121968256
48
root -0.18165993308345363 18.248011537597804 10.568988389088494 -4.3718239342444125 1.8999556311341415 -5.4577448749077995
lfemur -8.39671495198754 -2.327047839385918 -14.088556809229544
ltibia 55.382640287747364
lfoot 2.4942532831254374 -9.867019428383209
ltoes -13.474758834695432
rfemur -12.738605873236999 5.843054629807715 30.671824339608897
rtibia 24.194758845927222
rfoot -7.541638540654178 -4.422236422517974
rtoes 8.680660368095943
lowerback 10.002181727005613 -1.4845657226544808 2.3217604814126704
upperback -0.08015135587778319 -1.2750423492389473 3.158777531736175
thorax -5.802422414735424 -0.6379980626385688 2.363737638681868
lowerneck -16.10011137940678 -2.5633413362761184 -1.8796049658441931
upperneck 23.625406106344023 -2.8268685376303244 -0.5237095098595578
head 10.3368165096289 -1.536425886907904 -0.21188811958089723
lclavicle -1.3883576029936052e-15 -1.8444004800569507e-15
lhumerus -29.312576207995498 1.082918435453379 81.03145486190958
lradius 31.014589420446796
lwrist 7.528245720082289
lhand -28.992035616072975 22.839628408405424
lfingers 7.125019999999999
lthumb -2.1140728564806905 53.44508046549115
rclavicle -1.3837467789079211e-15 -1.8405136837881126e-15
rhumerus -37.26198797205145 -31.40586237127939 -66.87744269179304
rradius 17.48886977263657
rwrist 15.705504865664079
rhand -17.600973138843393 22.16395697608623
rfingers 7.125019999999999
rthumb 8.366613230765125 -7.840640382214016
49
root -0.15469437708759803 18.361015228912883 9.905848847542957 -3.934298789436413 1.0971000817421712 -6.281144567837778
lfemur -12.482066443930666 -3.3702536029220305 -13.520139816582631
ltibia 58.83374051270621
lfoot 0.2890177244371026 -8.42279294119319
ltoes -13.80220697189318
rfemur -9.583488357849031 5.582789690001921 32.14249169693721
rtibia 24.55753801564714
rfoot -9.08335655133447 -4.329482126808664
rtoes 9.336659960347129
lowerback 9.850021674033707 -1.1330304929565762 3.4761974316349376
upperback 0.06271081488497016 -0.7350467051251968 3.181647122124842
thorax -5.880470217932645 -0.39624591258095504 1.7874129489146122
lowerneck -16.037735026556053 -2.612126536791223 -1.7937754043548084
upperneck 23.66667594854599 -2.9305650073534792 -0.5639494846622076
head 10.320212078577843 -1.578248833353211 -0.24248959737966197
lclavicle -1.3876924540685324e-15 -1.843788834879772e-15
lhumerus -30.08200074879692 1.702790924674026 80.93329569083366
lradius 30.593497287216888
lwrist 6.192459367252555
lhand -28.342005640253205 23.613511913319375
lfingers 7.125019999999999
lthumb -1.476924382123052 54.25930723733788
rclavicle -1.381286026066232e-15 -1.8383006014299624e-15
rhumerus -35.948515498663305 -29.97525019499817 -69.16655836608288
rradius 18.12218450411692
rwrist 14.166469093124496
rhand -17.49756477787471 22.333080239037507
rfingers 7.125019999999999
rthumb 8.48172263822805 -7.524635536794732
